<svg id="Layer_1" enable-background="new 0 0 512 512" viewBox="0 0 512 512" xmlns="http://www.w3.org/2000/svg"><g><path d="m94.143 44.945c-7.089-4.729-15.604-6.948-24.519-6.084-8.496.823-16.05-5.398-16.873-13.894-.823-8.495 5.403-16.045 13.893-16.873 19.901-1.927 38.637 4.493 52.747 17.353 3.792 9.192-.1 19.144-7.516 22.598-5.522 2.574-12.53 1.325-17.732-3.1z" fill="#00ce8e"/><path d="m370.034 73.28 31.562-57.957c8.06-14.801 27.334-19.874 42.339-10.801 16.039 9.674 19.737 29.569 10.164 43.283-14.208 20.356-32.443 47.23-47.974 69.728-2.106.815-14.736 5.481-25.698-.886-12.371-7.186-17.958-25.718-10.393-43.367z" fill="#eaaa83"/><path d="m419.937 325.154c-2.401 51.826-11.292 103.549-27.026 154.18-6.027 19.421-23.966 32.666-44.304 32.666h-68.373c-75.678-2.893-46.35-45.38-47.529-49.718z" fill="#fdc072"/><path d="m282.026 512h-117.19l67.868-49.718c2.08 7.653 5.186 18.816 7.923 24.244 7.793 15.424 23.671 25.474 41.399 25.474z" fill="#ffa93f"/><path d="m235.249 466.434c-17.037-7.154-129.694-2.941-25.212-170.036l71.382-2.092c12.143 60.719-3.794 124.192-46.17 172.128z" fill="#fdc072"/><path d="m233.693 465.795-127.968-52.66c-7.439-38.679-11.086-77.739-11.086-116.737l186.078-5.461c.227 1.051.464 2.174.701 3.369l-71.382 2.092c.001 57.373 7.887 114.234 23.657 169.397z" fill="#ffa93f"/><path d="m420.596 296.397c0 9.582-.216 19.174-.659 28.756-42.11 71.279-104.507 127.545-179.309 161.371-3.949-7.828-92.757 9.737-25.964-114.409 18.402-14.404 32.507-30.56 42.955-45.047 31.284-50.323 91.832-68.735 152.15-37.082 5.902 3.104 9.714 5.639 10.827 6.411z" fill="#eaaa83"/><path d="m240.627 486.525c-24.069 10.89-49.415 19.479-75.792 25.475-19.587-.752-36.659-13.822-42.512-32.667-6.8-21.895-12.323-43.985-16.599-66.199 38.972-2.167 76.57-15.659 108.937-41.018 5.791 46.953 19.659 101.904 25.966 114.409z" fill="#e7896e"/><path d="m433.867 294.059c-75.313 13.791-154.04 18.678-222.893 14.95-53.383-20.919-24.835-73.89 25.377-76.142h189.098c15.764-1.474 30.329 9.325 33.238 25.212 3.077 16.795-8.036 32.899-24.82 35.98z" fill="#ffd9a0"/><path d="m210.974 309.009c-43.315-2.081-86.579-7.068-129.606-14.95-16.784-3.081-27.902-19.185-24.831-35.98 2.916-15.888 17.474-26.686 33.249-25.212h146.565c-38.009 9.891-56.287 50.095-25.377 76.142z" fill="#fdc072"/><path d="m425.449 232.867c-3.656.333-11.185 2.213-35.135 5.729-9.397 1.38-16.331 9.489-16.331 18.989v56.803c0 9.891-7.48 18.031-17.083 19.071-11.702 1.399-21.709-7.602-21.709-19.071v-35.135c0-13.628-13.736-22.78-26.459-17.897-7.243 2.761-12.323 9.788-12.323 17.928v58.379c0 10.115-7.971 19.195-19.586 19.195-10.613 0-19.206-8.593-19.206-19.195v-70.352c0-10.372-8.271-18.97-18.762-19.195-9.634-.196-19.257-.546-28.88-1.061-121.582 0-66.175-208.942 96.45-208.942 82.159 24.479 135.138 107.5 119.024 194.754z" fill="#efedff"/><path d="m178.189 178.671c-5.378 28.139 8.325 55.277 31.786 68.384-67.665-3.535-115.402-13.752-120.189-14.188-23.235-125.814 94.925-231.002 216.639-194.754-65.777 18.927-115.47 73.885-128.236 140.558z" fill="#d9d9f9"/><ellipse cx="175.162" cy="180.868" fill="#ffa1ac" rx="24.229" ry="30.425" transform="matrix(.002 -1 1 .002 -6.091 355.633)"/><ellipse cx="340.073" cy="181.229" fill="#ffa1ac" rx="24.229" ry="30.425" transform="matrix(.002 -1 1 .002 158.1 520.905)"/><g fill="#485c70"><path d="m190.131 169.799c-4.268 0-7.728-3.459-7.728-7.728v-12.364c0-4.268 3.46-7.728 7.728-7.728s7.728 3.459 7.728 7.728v12.364c0 4.269-3.46 7.728-7.728 7.728z"/><path d="m342.017 169.454c-4.268 0-7.728-3.459-7.728-7.728 0-3.639-2.961-6.601-6.601-6.601-3.639 0-6.601 2.961-6.601 6.601 0 4.268-3.459 7.728-7.728 7.728s-7.728-3.459-7.728-7.728c0-12.162 9.894-22.056 22.056-22.056 21.98.001 28.974 29.784 14.33 29.784z"/><path d="m257.716 187.207c-3.982 3.49-9.196 5.608-14.894 5.608-22.469 0-29.633-30.35-14.894-30.35 4.268 0 7.728 3.459 7.728 7.728 0 3.952 3.215 7.167 7.167 7.167s7.167-3.215 7.167-7.167c0-4.268 3.46-7.728 7.728-7.728s7.728 3.459 7.728 7.728c0 3.952 3.215 7.167 7.167 7.167 3.951 0 7.166-3.215 7.166-7.167 0-4.268 3.459-7.728 7.728-7.728s7.728 3.459 7.728 7.728c-.003 19.454-23.009 29.731-37.519 17.014z"/></g><circle cx="133.492" cy="69.82" fill="#ff5f7f" r="46.547"/></g><g/><g/><g/><g/><g/><g/><g/><g/><g/><g/><g/><g/><g/><g/><g/></svg>