<svg 
 xmlns="http://www.w3.org/2000/svg"
 xmlns:xlink="http://www.w3.org/1999/xlink"
 width="334px" height="166px">
<path fill-rule="evenodd"  fill="rgb(16, 16, 16)"
 d="M299.749,154.253 L299.494,117.996 C298.640,119.042 297.738,120.046 296.774,120.995 C292.607,125.098 287.365,127.807 281.050,129.117 C275.538,130.259 269.893,129.886 264.116,128.001 C258.341,126.113 253.193,122.711 248.670,117.794 C244.148,112.875 241.034,106.307 239.331,98.088 C237.938,91.371 237.798,84.892 238.908,78.651 C240.020,72.407 242.162,66.736 245.338,61.634 C248.515,56.531 252.490,52.256 257.265,48.811 C262.040,45.366 267.385,43.028 273.298,41.802 C278.711,40.679 283.767,40.599 288.460,41.559 C293.156,42.519 297.184,44.926 300.543,48.778 C300.564,48.802 300.583,48.830 300.604,48.854 L300.525,37.725 L332.854,31.022 L333.732,147.208 L299.749,154.253 ZM299.272,77.820 C298.481,74.009 296.761,71.126 294.106,69.167 C291.453,67.208 288.222,66.623 284.411,67.413 C281.403,68.037 278.959,69.352 277.075,71.365 C275.193,73.375 273.916,75.914 273.243,78.981 C272.573,82.046 272.631,85.484 273.421,89.295 C274.211,93.104 275.934,95.988 278.587,97.948 C281.243,99.906 284.474,100.491 288.282,99.702 C291.191,99.099 293.609,97.786 295.543,95.765 C297.476,93.742 298.779,91.198 299.449,88.133 C300.122,85.066 300.061,81.628 299.272,77.820 ZM225.295,158.398 L191.313,165.443 L191.177,146.181 L174.396,149.660 L174.215,123.821 L190.995,120.342 L190.811,94.190 C190.732,91.278 190.005,89.284 188.631,88.212 C187.259,87.136 185.421,86.839 183.113,87.317 C182.867,87.368 182.633,87.429 182.396,87.489 C178.369,89.002 170.471,94.312 166.571,97.018 L166.648,97.215 C163.893,99.565 160.663,101.514 156.961,103.065 C153.257,104.617 149.399,105.809 145.391,106.640 C138.373,108.095 132.138,108.028 126.687,106.441 C121.234,104.853 116.981,101.736 113.927,97.089 C110.871,92.444 109.308,86.416 109.237,79.006 L109.041,52.699 L97.684,55.054 L97.503,29.215 L108.848,26.863 L108.705,7.602 L142.687,0.557 L142.823,19.819 L159.604,16.340 L159.785,42.179 L143.005,45.658 L143.189,71.810 C143.268,74.722 143.995,76.716 145.369,77.788 C146.741,78.864 148.579,79.161 150.887,78.683 C152.289,78.392 153.531,77.953 154.612,77.362 C155.533,76.859 156.494,76.246 157.489,75.536 L157.487,75.526 C158.914,74.479 163.739,71.281 167.389,68.879 L167.352,68.785 C170.107,66.435 173.337,64.486 177.039,62.935 C180.743,61.383 184.601,60.191 188.609,59.360 C195.627,57.905 201.862,57.972 207.313,59.559 C212.766,61.147 217.019,64.264 220.073,68.911 C223.129,73.556 224.692,79.584 224.763,86.994 L224.959,113.301 L236.316,110.946 L236.497,136.785 L225.152,139.137 L225.295,158.398 ZM88.662,104.366 C85.485,109.469 81.510,113.744 76.735,117.189 C71.960,120.634 66.615,122.972 60.702,124.198 C55.289,125.321 50.233,125.401 45.540,124.441 C40.844,123.481 36.816,121.074 33.457,117.222 C33.436,117.198 33.417,117.170 33.396,117.146 L33.475,128.275 L1.146,134.978 L0.268,18.792 L34.251,11.747 L34.506,48.004 C35.360,46.958 36.262,45.954 37.226,45.005 C41.393,40.902 46.635,38.193 52.950,36.883 C58.462,35.741 64.107,36.114 69.884,37.999 C75.659,39.887 80.807,43.289 85.330,48.206 C89.852,53.125 92.966,59.693 94.669,67.912 C96.062,74.629 96.202,81.108 95.092,87.349 C93.980,93.593 91.838,99.264 88.662,104.366 ZM60.579,76.705 C59.789,72.896 58.066,70.012 55.413,68.052 C52.757,66.094 49.526,65.509 45.718,66.298 C42.809,66.901 40.391,68.214 38.457,70.235 C36.524,72.258 35.221,74.802 34.551,77.867 C33.878,80.934 33.939,84.372 34.728,88.180 C35.519,91.991 37.239,94.874 39.894,96.833 C42.547,98.792 45.778,99.377 49.589,98.587 C52.597,97.963 55.041,96.648 56.925,94.635 C58.807,92.625 60.084,90.086 60.757,87.019 C61.427,83.954 61.369,80.516 60.579,76.705 Z"/>
</svg>