<?xml version="1.0" encoding="UTF-8"?>
<!-- Generator: Adobe Illustrator 26.0.1, SVG Export Plug-In . SVG Version: 6.00 Build 0)  -->
<svg xmlns="http://www.w3.org/2000/svg" xmlns:xlink="http://www.w3.org/1999/xlink" version="1.1" id="Capa_1" x="0px" y="0px" fill="#fff" viewBox="0 0 512 512" style="enable-background:new 0 0 512 512;" xml:space="preserve" width="512" height="512">
<g>
	<path d="M256,46.126c68.355,0,76.452,0.261,103.447,1.492c27.894,1.273,56.643,7.639,76.968,27.963   c20.519,20.518,26.689,48.986,27.966,76.972c1.232,26.995,1.492,35.091,1.492,103.446c0,68.355-0.261,76.452-1.492,103.446   c-1.266,27.752-7.759,56.764-27.963,76.969c-20.529,20.529-48.961,26.688-76.973,27.967c-26.991,1.232-35.086,1.492-103.446,1.492   s-76.455-0.261-103.447-1.492c-27.537-1.257-56.929-7.925-76.968-27.963c-20.41-20.41-26.697-49.143-27.967-76.973   c-1.232-26.995-1.492-35.091-1.492-103.446c0-68.355,0.261-76.452,1.492-103.447c1.262-27.652,7.837-56.841,27.963-76.968   c20.479-20.48,49.04-26.692,76.972-27.967C179.548,46.387,187.645,46.126,256,46.126 M256,0c-69.525,0-78.243,0.294-105.549,1.54   C110.863,3.347,71.582,14.353,42.967,42.966C14.245,71.688,3.345,110.893,1.54,150.452C0.294,177.757,0,186.474,0,256   c0,69.526,0.294,78.243,1.54,105.549c1.804,39.525,12.87,78.927,41.426,107.483c28.687,28.688,67.972,39.624,107.485,41.427   C177.757,511.706,186.475,512,256,512c69.526,0,78.243-0.294,105.549-1.54c39.545-1.804,78.901-12.844,107.484-41.426   c28.733-28.732,39.622-67.918,41.427-107.485C511.706,334.243,512,325.526,512,256c0-69.525-0.294-78.243-1.54-105.549   c-1.805-39.566-12.833-78.889-41.426-107.483C440.388,14.321,400.991,3.34,361.548,1.54C334.243,0.294,325.526,0,256,0z"/>
	<path d="M256,124.54c-72.603,0-131.46,58.856-131.46,131.46c0,72.603,58.857,131.459,131.46,131.459S387.46,328.603,387.46,256   C387.46,183.397,328.603,124.54,256,124.54z M256,341.333c-47.128,0-85.333-38.205-85.333-85.333s38.205-85.333,85.333-85.333   s85.333,38.205,85.333,85.333S303.128,341.333,256,341.333z"/>
	<circle cx="392.654" cy="119.346" r="30.72"/>
</g>















</svg>
