<svg id="Layer_1" enable-background="new 0 0 500 500" height="500" viewBox="0 0 500 500" width="500" xmlns="http://www.w3.org/2000/svg"><g><path d="m474.021 399.208-62.483 4.889-4.839 62.487-160.121-159.989 67.322-67.377z" fill="#b23b11"/><path d="m410.002 423.944 1.536-19.847 21.318-1.669-141.131-141.016-22.178 22.193z" fill="#fed555"/><path d="m313.9 239.218-67.322 67.377 81.505 81.438c2.864-2.886 4.802-6.649 5.413-10.806l35.298 23.852c13.425 9.71 20.374 10.995 30.085-2.43l29.617-44.932z" opacity=".2"/><path d="m398.955 375.621c-9.123 13.831-20.934 13.195-31.448 6.26l-48.788-34.316c-10.515-6.935-5.368-17.496 3.756-31.326l31.384-47.581c9.124-13.831 25.042-19.421 35.556-12.487l42.515 28.044c10.513 6.936 15.632 17.718 6.509 31.548z" fill="#c9472d"/><path d="m408.086 361.777 21.338-32.348c-2.645-1.922-5.428-3.854-8.33-5.769l-89.102-58.771c-2.904-1.915-5.775-3.714-8.584-5.388l-21.337 32.348c2.646 1.923 5.429 3.854 8.333 5.77l89.1 58.771c2.904 1.915 5.774 3.713 8.582 5.387z" fill="#fed555"/><path d="m403.639 318.046c6.785-9.335 7.661-21.587 2.41-31.734 6.36-.967 12.119-3.898 16.573-8.236l-33.208-21.905c-10.514-6.934-26.432-1.344-35.556 12.487l-31.384 47.581c-9.124 13.83-14.271 24.392-3.756 31.326l25.312 17.805c.082 0 .162.007.244.007 6.446 0 12.609-2.001 17.823-5.788 9.342-6.786 13.959-18.169 12.099-29.44 1.62.267 3.267.401 4.912.401 9.675-.001 18.845-4.675 24.531-12.504z" opacity=".2"/><path d="m28.578 399.208 62.484 4.889 4.838 62.487 160.121-159.989-67.322-67.377z" fill="#b23b11"/><path d="m92.598 423.944-1.536-19.847-21.319-1.669 141.132-141.016 22.178 22.193z" fill="#fed555"/><path d="m188.699 239.218 67.322 67.377-81.505 81.438c-2.864-2.886-4.802-6.649-5.413-10.806l-35.298 23.852c-13.425 9.71-20.374 10.995-30.085-2.43l-29.617-44.932z" opacity=".2"/><path d="m103.645 375.621c9.123 13.831 20.934 13.195 31.448 6.26l48.788-34.316c10.515-6.935 5.368-17.496-3.756-31.326l-31.384-47.581c-9.124-13.831-25.042-19.421-35.556-12.487l-42.515 28.044c-10.513 6.936-15.632 17.718-6.509 31.548z" fill="#c9472d"/><path d="m94.514 361.777-21.338-32.347c2.645-1.922 5.428-3.854 8.33-5.769l89.102-58.771c2.904-1.915 5.775-3.714 8.584-5.388l21.337 32.348c-2.646 1.923-5.429 3.854-8.333 5.77l-89.1 58.771c-2.905 1.914-5.775 3.712-8.582 5.386z" fill="#fed555"/><path d="m98.961 318.046c-6.785-9.335-7.661-21.587-2.41-31.734-6.36-.967-12.119-3.898-16.573-8.236l33.208-21.905c10.514-6.934 26.432-1.344 35.556 12.487l31.384 47.581c9.124 13.83 14.271 24.392 3.756 31.326l-25.312 17.805c-.082 0-.162.007-.244.007-6.446 0-12.609-2.001-17.823-5.788-9.342-6.786-13.959-18.169-12.099-29.44-1.62.267-3.267.401-4.912.401-9.676-.001-18.846-4.675-24.531-12.504z" opacity=".2"/><path d="m428.495 207.686c0-7.765-4.651-14.775-11.805-17.796l-14.341-6.059 11.77-10.19c5.869-5.085 8.125-13.189 5.727-20.575-2.4-7.386-8.99-12.619-16.729-13.28l-15.512-1.328 7.757-12.85c1.946-3.016 3.075-6.607 3.075-10.461 0-10.445-8.275-18.952-18.635-19.31-.23-.008-.463-.011-.693-.012-.438 0-.877.015-1.318.044-1.189.082-2.352.271-3.474.555l-14.753 3.436 3.365-14.462c.441-1.618.678-3.321.678-5.079 0-10.662-8.625-19.318-19.283-19.318-.016 0-.031 0-.049 0-.112 0-.223 0-.336 0-.004 0-.009 0-.009 0-.009 0-.015 0-.023 0-3.626 0-7.006 1.135-9.88 2.938l-13.061 7.881-1.328-15.512c-.662-7.736-5.895-14.328-13.279-16.727-1.962-.64-3.975-.945-5.971-.945-5.508 0-10.871 2.357-14.604 6.67l-10.192 11.772-6.057-14.345c-3.021-7.153-10.032-11.805-17.797-11.805-7.766 0-14.777 4.652-17.797 11.805l-6.057 14.342-10.193-11.77c-3.734-4.312-9.098-6.671-14.605-6.671-1.996 0-4.007.308-5.969.945-7.387 2.4-12.617 8.99-13.281 16.728l-1.325 15.511-13.33-8.044c-3.081-1.857-6.538-2.778-9.981-2.778-3.998 0-7.984 1.237-11.357 3.69-6.282 4.564-9.223 12.447-7.461 20.011l3.531 15.163-15.166-3.528c-1.454-.341-2.924-.505-4.379-.506-6.098 0-11.945 2.894-15.631 7.964-4.565 6.283-4.923 14.688-.91 21.338l8.043 13.33-15.51 1.328c-7.737.661-14.328 5.895-16.728 13.28-2.401 7.386-.146 15.49 5.724 20.575l11.77 10.19-14.34 6.059c-7.154 3.021-11.806 10.031-11.806 17.796 0 7.767 4.651 14.778 11.806 17.799l14.34 6.056-11.77 10.193c-5.869 5.084-8.125 13.188-5.724 20.573 2.399 7.386 8.99 12.619 16.728 13.281l15.51 1.326-8.043 13.33c-4.013 6.65-3.655 15.056.91 21.338 3.686 5.072 9.533 7.967 15.631 7.967 1.455 0 2.923-.165 4.379-.506l15.166-3.531-3.531 15.165c-1.762 7.562 1.179 15.446 7.461 20.011 3.373 2.451 7.359 3.688 11.357 3.688 3.446 0 6.9-.919 9.981-2.778l13.33-8.043 1.325 15.511c.664 7.737 5.895 14.328 13.281 16.729 1.96.638 3.973.944 5.969.944 5.508 0 10.871-2.36 14.605-6.672l10.193-11.769 6.057 14.341c3.02 7.153 10.031 11.806 17.797 11.806 7.765 0 14.776-4.652 17.797-11.806l6.057-14.341 10.192 11.769c3.733 4.312 9.097 6.672 14.604 6.672 1.996 0 4.007-.307 5.971-.944 7.385-2.4 12.617-8.991 13.279-16.729l1.328-15.511 13.328 8.043c3.08 1.859 6.537 2.778 9.98 2.778 3.998 0 7.984-1.237 11.359-3.688 6.283-4.564 9.222-12.448 7.459-20.011l-3.529-15.165 15.164 3.531c1.456.341 2.928.506 4.381.506 6.098 0 11.945-2.895 15.629-7.967 4.566-6.282 4.926-14.688.912-21.338l-8.045-13.33 15.512-1.326c7.738-.662 14.328-5.896 16.729-13.281 2.398-7.385.143-15.489-5.727-20.573l-11.77-10.193 14.341-6.056c7.155-3.021 11.806-10.033 11.806-17.799z" fill="#f9b428"/><g fill="#fff9a9"><path d="m228.648 360.104 2.479 5.87 178.827-178.93-5.866-2.478z" opacity=".2"/><path d="m195.064 374.98 223.932-224.049c-1.497-3.237-3.832-5.956-6.714-7.904l-225.159 225.275c1.959 2.873 4.695 5.195 7.941 6.678z" opacity=".2"/><path d="m306.53 39.6-222.84 222.868c2.177 6.508 7.618 11.308 14.215 12.739l221.362-221.394c-1.419-6.604-6.222-12.029-12.737-14.213z" opacity=".2"/><path d="m271.051 46.318-180.664 180.686 8.994 3.799 175.467-175.491z" opacity=".2"/></g><path d="m251.738 84.007c-67.865 0-122.877 55.013-122.877 122.878s55.012 122.878 122.877 122.878c67.864 0 122.877-55.013 122.877-122.878s-55.012-122.878-122.877-122.878z" fill="#f9b428"/><path d="m251.738 74.942c-72.872 0-131.941 59.071-131.941 131.942s59.069 131.942 131.941 131.942c72.87 0 131.941-59.071 131.941-131.942s-59.071-131.942-131.941-131.942zm0 242.877c-61.268 0-110.935-49.666-110.935-110.935 0-61.268 49.667-110.936 110.935-110.936s110.934 49.668 110.934 110.936c0 61.269-49.666 110.935-110.934 110.935z" fill="#fed555"/><g clip-rule="evenodd" fill="#fff" fill-rule="evenodd"><path d="m128.879 216.761 4.211-12.819 12.82-4.213-12.82-4.215-4.211-12.818-4.215 12.818-12.819 4.215 12.819 4.213z"/><path d="m361.277 290.772 4.212-12.816 12.82-4.214-12.82-4.216-4.212-12.818-4.215 12.818-12.817 4.216 12.817 4.214z"/><path d="m159.957 123.854-6.686-20.338-6.685 20.338-20.346 6.689 20.346 6.686 6.685 20.338 6.686-20.338 20.339-6.686z"/></g><g><g><path d="m309.219 204.94s7.707-4.443 5.967-12.339c-1.742-7.899-11.939-7.65-12.934-7.65-.996 0-29.848-.744-31.338-1.479 0 0 12.686-10.616 15.172-24.684 2.487-14.068.248-22.706-5.969-24.435s-6.217-3.458-8.207-1.729-2.985 7.157-3.234 9.631c-.249 2.464-6.716 20.977-14.924 25.663-8.205 4.691-11.44 5.43-12.434 9.624-.995 4.198-12.34 32.674-24.524 35.639l-6.443 45.328 6.443 4.004s11.341-3.276 17.808-5.005 9.949-1.729 13.928.492c3.979 2.224 23.625 6.665 40.044 1.729 16.417-4.938 21.387-6.666 21.636-12.587.25-5.923-2.73-8.638-2.73-8.638s6.959-4.687 2.481-16.039c-.001.002 8.704-7.651-.742-17.525zm-115.653 60.47 17.424.006v-55.137l-6.443-4.004-17.424 55.131z" fill="#e2901a"/></g></g><g><path d="m302.775 200.937s7.707-4.443 5.967-12.339c-1.742-7.899-11.939-7.65-12.934-7.65-.996 0-29.848-.744-31.338-1.479 0 0 12.686-10.616 15.172-24.684 2.487-14.068.248-22.706-5.969-24.435s-6.217-3.458-8.207-1.729-2.985 7.157-3.234 9.631c-.249 2.464-6.716 20.977-14.924 25.663-8.205 4.691-11.44 5.43-12.434 9.624-.995 4.198-12.34 32.674-24.524 35.639v49.332s11.341-3.276 17.808-5.005 9.949-1.729 13.928.492c3.979 2.224 23.625 6.665 40.044 1.729 16.417-4.938 21.387-6.666 21.636-12.587.25-5.923-2.73-8.638-2.73-8.638s6.959-4.687 2.481-16.039c0 .001 8.705-7.651-.742-17.525zm-115.652 60.469 17.424.006v-55.137h-17.411z" fill="#fed555"/></g></g></svg>